<svg width="16" height="18" viewBox="0 0 16 18" fill="none" xmlns="http://www.w3.org/2000/svg">
<path d="M13.4196 5.625H2.57964C2.529 5.62479 2.47888 5.63548 2.43248 5.6564C2.38609 5.67732 2.34444 5.70801 2.31021 5.74649C2.27597 5.78496 2.24991 5.83039 2.23369 5.87986C2.21747 5.92933 2.21144 5.98174 2.216 6.03375L3.152 16.6357C3.18485 17.0086 3.3517 17.3552 3.61976 17.6077C3.88782 17.8601 4.23772 18 4.60073 18H11.3985C11.7616 18 12.1115 17.8601 12.3795 17.6077C12.6476 17.3552 12.8144 17.0086 12.8473 16.6357L13.7818 6.03375C13.7863 5.98189 13.7803 5.92964 13.7642 5.88032C13.748 5.83099 13.7221 5.78567 13.688 5.74725C13.654 5.70877 13.6125 5.67802 13.5663 5.65698C13.5201 5.63593 13.4701 5.62504 13.4196 5.625ZM6.72873 15.375C6.72873 15.5242 6.67126 15.6673 6.56897 15.7727C6.46667 15.8782 6.32794 15.9375 6.18327 15.9375C6.03861 15.9375 5.89987 15.8782 5.79758 15.7727C5.69529 15.6673 5.63782 15.5242 5.63782 15.375V8.625C5.63782 8.47582 5.69529 8.33274 5.79758 8.22725C5.89987 8.12176 6.03861 8.0625 6.18327 8.0625C6.32794 8.0625 6.46667 8.12176 6.56897 8.22725C6.67126 8.33274 6.72873 8.47582 6.72873 8.625V15.375ZM10.3651 15.375C10.3651 15.5242 10.3076 15.6673 10.2053 15.7727C10.103 15.8782 9.9643 15.9375 9.81964 15.9375C9.67497 15.9375 9.53623 15.8782 9.43394 15.7727C9.33165 15.6673 9.27418 15.5242 9.27418 15.375V8.625C9.27418 8.47582 9.33165 8.33274 9.43394 8.22725C9.53623 8.12176 9.67497 8.0625 9.81964 8.0625C9.9643 8.0625 10.103 8.12176 10.2053 8.22725C10.3076 8.33274 10.3651 8.47582 10.3651 8.625V15.375ZM15.2727 3H11.8182C11.77 3 11.7237 2.98025 11.6896 2.94508C11.6555 2.90992 11.6364 2.86223 11.6364 2.8125V1.875C11.6364 1.37772 11.4448 0.900805 11.1038 0.549175C10.7629 0.197544 10.3004 0 9.81818 0H6.18182C5.69961 0 5.23714 0.197544 4.89617 0.549175C4.55519 0.900805 4.36364 1.37772 4.36364 1.875V2.8125C4.36364 2.86223 4.34448 2.90992 4.31038 2.94508C4.27629 2.98025 4.23004 3 4.18182 3H0.727273C0.534388 3 0.349403 3.07902 0.213013 3.21967C0.0766231 3.36032 0 3.55109 0 3.75C0 3.94891 0.0766231 4.13968 0.213013 4.28033C0.349403 4.42098 0.534388 4.5 0.727273 4.5H15.2727C15.4656 4.5 15.6506 4.42098 15.787 4.28033C15.9234 4.13968 16 3.94891 16 3.75C16 3.55109 15.9234 3.36032 15.787 3.21967C15.6506 3.07902 15.4656 3 15.2727 3ZM5.81818 2.8125V1.875C5.81818 1.77554 5.85649 1.68016 5.92469 1.60984C5.99288 1.53951 6.08538 1.5 6.18182 1.5H9.81818C9.91462 1.5 10.0071 1.53951 10.0753 1.60984C10.1435 1.68016 10.1818 1.77554 10.1818 1.875V2.8125C10.1818 2.86223 10.1627 2.90992 10.1286 2.94508C10.0945 2.98025 10.0482 3 10 3H6C5.95178 3 5.90553 2.98025 5.87144 2.94508C5.83734 2.90992 5.81818 2.86223 5.81818 2.8125Z" fill="#F56565"/>
</svg>
